<svg width="1000" height="1000" viewBox="0 0 1000 1000" fill="none" xmlns="http://www.w3.org/2000/svg">
<g clip-path="url(#clip0_15_2)">
<mask id="mask0_15_2" style="mask-type:luminance" maskUnits="userSpaceOnUse" x="0" y="0" width="1000" height="1000">
<path d="M1000 0H0V1000H1000V0Z" fill="white"/>
</mask>
<g mask="url(#mask0_15_2)">
<path fill-rule="evenodd" clip-rule="evenodd" d="M87.1481 411.319L91.4541 407.015L116.343 499.901L91.4541 592.787L87.1481 588.483C64.3018 565.635 52.1247 536.158 50.6167 506.246L75.8181 501.206C77.2436 500.92 77.2436 498.882 75.8181 498.596L50.6167 493.556C52.1247 463.644 64.3018 434.167 87.1481 411.319ZM86.6747 389.178L75.8407 400.012C49.8879 425.964 36.1443 459.502 34.6097 493.489L9.06917 498.596C7.64361 498.882 7.64361 500.92 9.06917 501.206L34.6097 506.313C36.1443 540.3 49.8879 573.838 75.8407 599.79L86.6747 610.624L82.7092 625.424C73.2103 660.875 78.0761 696.793 93.7413 726.994L74.1757 744.187C73.084 745.147 74.1026 746.912 75.4803 746.447L100.152 738.099C118.476 766.766 147.147 788.94 182.598 798.439L197.398 802.404L201.364 817.204C210.862 852.655 233.036 881.327 261.703 899.65L253.355 924.322C252.89 925.699 254.655 926.718 255.615 925.626L272.808 906.062C303.01 921.726 338.927 926.593 374.378 917.093L389.178 913.127L400.012 923.961C425.964 949.914 459.502 963.658 493.489 965.192L498.596 990.733C498.882 992.158 500.92 992.158 501.206 990.733L506.313 965.192C540.3 963.658 573.838 949.914 599.79 923.961L610.624 913.127L625.424 917.093C660.877 926.592 696.793 921.726 726.994 906.061L744.187 925.626C745.147 926.718 746.912 925.699 746.447 924.322L738.099 899.65C766.766 881.327 788.94 852.655 798.439 817.204L802.404 802.404L817.204 798.439C852.655 788.94 881.326 766.766 899.65 738.099L924.322 746.447C925.699 746.912 926.718 745.147 925.626 744.187L906.061 726.994C921.726 696.793 926.593 660.877 917.093 625.424L913.127 610.624L923.961 599.79C949.914 573.838 963.658 540.3 965.192 506.313L990.733 501.206C992.158 500.92 992.158 498.882 990.733 498.596L965.192 493.489C963.658 459.502 949.914 425.963 923.961 400.012L913.127 389.178L917.093 374.378C926.593 338.927 921.726 303.01 906.062 272.808L925.626 255.615C926.718 254.655 925.699 252.89 924.322 253.355L899.65 261.703C881.327 233.036 852.655 210.862 817.204 201.364L802.404 197.398L798.439 182.598C788.94 147.147 766.766 118.476 738.099 100.152L746.447 75.4803C746.912 74.1026 745.147 73.084 744.187 74.1757L726.994 93.7413C696.793 78.0761 660.875 73.2103 625.424 82.7092L610.624 86.6747L599.79 75.8407C573.838 49.8879 540.3 36.1443 506.313 34.6097L501.206 9.06917C500.92 7.64361 498.882 7.64361 498.596 9.06917L493.489 34.6097C459.502 36.1443 425.964 49.8879 400.012 75.8407L389.178 86.6747L374.378 82.7092C338.927 73.2089 303.01 78.0761 272.808 93.74L255.615 74.1757C254.655 73.084 252.89 74.1026 253.355 75.4803L261.703 100.152C233.036 118.475 210.862 147.147 201.364 182.598L197.398 197.398L182.598 201.364C147.147 210.862 118.475 233.036 100.152 261.703L75.4803 253.355C74.1026 252.89 73.084 254.655 74.1757 255.615L93.74 272.808C78.0761 303.01 73.2089 338.927 82.7092 374.378L86.6747 389.178ZM124.621 469.007L104.512 393.957L159.452 339.017L124.621 469.007ZM98.1563 370.238L99.7322 376.12L167.73 308.121L192.619 215.235L186.738 216.811C155.529 225.174 130.244 244.612 113.981 269.764L133.286 286.73C134.378 287.69 133.359 289.455 131.983 288.989L107.638 280.754C93.986 307.412 89.7931 339.029 98.1563 370.238ZM807.183 784.567L813.064 782.991C844.273 774.628 869.559 755.19 885.821 730.038L866.516 713.072C865.424 712.112 866.443 710.347 867.819 710.813L892.164 719.048C905.816 692.389 910.009 660.773 901.646 629.564L900.07 623.682L832.072 691.679L807.183 784.567ZM789.347 789.347L714.297 809.456L809.456 714.297L789.347 789.347ZM784.567 807.183L782.991 813.064C774.628 844.273 755.19 869.559 730.038 885.821L713.072 866.516C712.112 865.424 710.347 866.443 710.813 867.819L719.048 892.164C692.389 905.816 660.773 910.009 629.564 901.646L623.682 900.07L691.679 832.072L784.567 807.183ZM683.401 817.734L817.734 683.401L866.903 499.901L817.734 316.399L683.401 182.068L499.901 132.899L316.399 182.068L182.068 316.399L132.899 499.901L182.068 683.401L316.399 817.734L499.901 866.903L683.401 817.734ZM895.29 605.845L840.35 660.785L875.181 530.795L895.29 605.845ZM912.654 588.483L908.348 592.787L883.459 499.901L908.348 407.015L912.654 411.319C935.5 434.167 947.677 463.644 949.185 493.556L923.984 498.596C922.558 498.882 922.558 500.92 923.984 501.206L949.185 506.246C947.677 536.158 935.5 565.635 912.654 588.483ZM875.181 469.007L895.29 393.957L840.35 339.017L875.181 469.007ZM901.646 370.238L900.07 376.12L832.072 308.121L807.183 215.235L813.064 216.811C844.275 225.174 869.559 244.612 885.821 269.764L866.516 286.73C865.424 287.69 866.443 289.455 867.819 288.989L892.165 280.754C905.816 307.412 910.009 339.029 901.646 370.238ZM714.297 190.346L809.456 285.505L789.347 210.455L714.297 190.346ZM782.991 186.738L784.567 192.619L691.681 167.73L623.683 99.7322L629.564 98.1563C660.773 89.7931 692.388 93.986 719.048 107.638L710.813 131.983C710.347 133.359 712.112 134.378 713.072 133.286L730.038 113.981C755.19 130.244 774.628 155.529 782.991 186.738ZM660.785 159.452L605.845 104.512L530.797 124.621L660.785 159.452ZM588.483 87.1481L592.787 91.4541L499.901 116.343L407.015 91.4541L411.319 87.1481C434.167 64.3018 463.644 52.1247 493.556 50.6167L498.596 75.8181C498.882 77.2436 500.92 77.2436 501.206 75.8181L506.246 50.6167C536.158 52.1247 565.635 64.3018 588.483 87.1481ZM469.007 124.621L393.957 104.512L339.017 159.452L469.007 124.621ZM376.12 99.7322L308.121 167.73L215.235 192.619L216.811 186.738C225.174 155.529 244.612 130.244 269.764 113.981L286.73 133.286C287.69 134.378 289.455 133.359 288.989 131.983L280.754 107.638C307.414 93.986 339.029 89.7931 370.238 98.1563L376.12 99.7322ZM285.505 190.346L210.455 210.455L190.346 285.505L285.505 190.346ZM124.621 530.797L104.512 605.845L159.452 660.785L124.621 530.797ZM285.505 809.456L190.346 714.297L210.455 789.347L285.505 809.456ZM192.619 784.567L167.73 691.681L99.7322 623.683L98.1563 629.564C89.7931 660.773 93.986 692.388 107.638 719.048L131.983 710.813C133.359 710.347 134.378 712.112 133.286 713.072L113.981 730.038C130.244 755.19 155.529 774.628 186.738 782.991L192.619 784.567ZM215.235 807.183L308.121 832.072L376.12 900.07L370.238 901.646C339.029 910.009 307.412 905.816 280.754 892.165L288.989 867.819C289.455 866.443 287.69 865.424 286.73 866.516L269.764 885.821C244.612 869.559 225.174 844.275 216.811 813.064L215.235 807.183ZM393.957 895.29L339.017 840.35L469.007 875.181L393.957 895.29ZM407.015 908.348L499.901 883.459L592.787 908.348L588.483 912.654C565.635 935.5 536.158 947.677 506.246 949.185L501.206 923.984C500.92 922.558 498.882 922.558 498.596 923.984L493.556 949.185C463.644 947.677 434.167 935.5 411.319 912.654L407.015 908.348ZM605.845 895.29L530.795 875.181L660.785 840.35L605.845 895.29Z" fill="white"/>
<path d="M633.014 269.702L730.364 367.051L765.996 500.033L730.364 633.014L633.014 730.364L500.032 765.996L367.051 730.364L269.701 633.014L234.069 500.033L269.701 367.051L367.051 269.702L500.032 234.069L633.014 269.702ZM498.129 413.887C494.544 439.498 492.25 455.889 486.873 467.431C475.468 464.915 463.625 459.154 450.164 450.165C459.157 463.622 464.92 475.466 467.437 486.871C455.896 492.249 439.503 494.545 413.888 498.13L400.296 500.033L413.888 501.936C439.494 505.52 455.882 507.815 467.424 513.189C464.903 524.567 459.155 536.418 450.164 549.901C463.646 540.907 475.496 535.16 486.877 532.641C492.252 544.183 494.546 560.573 498.129 586.178L500.032 599.769L501.935 586.178C505.521 560.566 507.816 544.175 513.192 532.633C524.598 535.151 536.442 540.913 549.901 549.901C540.908 536.443 535.146 524.6 532.629 513.194C544.17 507.816 560.563 505.521 586.178 501.936L599.769 500.033L586.178 498.13C560.572 494.546 544.184 492.251 532.642 486.877C535.164 475.499 540.91 463.648 549.901 450.165C536.418 459.154 524.566 464.902 513.187 467.42C507.813 455.879 505.521 439.49 501.937 413.887L500.032 400.296L498.129 413.887Z" fill="white"/>
</g>
</g>
<defs>
<clipPath id="clip0_15_2">
<rect width="1000" height="1000" fill="white"/>
</clipPath>
</defs>
</svg>
